<svg xmlns="http://www.w3.org/2000/svg" viewBox="0 0 306.48 55.11"><defs><style>.cls-1{fill:#00bda5;}.cls-2{fill:#fff;}</style></defs><g id="图层_2" data-name="图层 2"><g id="图层_1-2" data-name="图层 1"><path class="cls-1" d="M191.28,26.65a22.82,22.82,0,1,0-9.07,18.66,11.29,11.29,0,0,0,9.08,4.59V26.65ZM168.47,38.51A11.41,11.41,0,1,1,179.88,27.1a11.41,11.41,0,0,1-11.41,11.41Z"/><path class="cls-1" d="M259.75,4.47a22.82,22.82,0,1,0,11.93,42.28,11.28,11.28,0,0,0,10.9,8.36V26.86h0A22.82,22.82,0,0,0,259.75,4.47Zm0,34.23a11.41,11.41,0,1,1,11.41-11.41A11.41,11.41,0,0,1,259.75,38.7Z"/><path class="cls-1" d="M293.75,39.67a5.07,5.07,0,1,0,4.12,5.87,5.07,5.07,0,0,0-4.12-5.87Z"/><path class="cls-1" d="M300.73.11a6.93,6.93,0,0,0-8,5.61,7.17,7.17,0,0,0-.1,1.39l.62,27.23a1.49,1.49,0,0,0,2.87.51L306,9.45a6.92,6.92,0,0,0-3.92-9A7.11,7.11,0,0,0,300.73.11Z"/><path class="cls-1" d="M120.28,4.47a24.8,24.8,0,0,0-12.93,3.88A12.47,12.47,0,0,0,95.64.19h0V29.47h0a25,25,0,0,0,8.59,18.87,6.12,6.12,0,0,0,10.15-4.6v-.45a6.15,6.15,0,0,0-2.12-4.55,12.48,12.48,0,1,1,16.62.11,6.1,6.1,0,0,0-2,4.58A6.27,6.27,0,0,0,137.39,48,25,25,0,0,0,120.28,4.47Z"/><path class="cls-1" d="M87.39,6.3a6.27,6.27,0,0,0-10.5,4.6,6.1,6.1,0,0,0,2,4.58,12.52,12.52,0,1,1-16.62.11A6.15,6.15,0,0,0,64.39,11v-.45A6.12,6.12,0,0,0,54.24,6,25,25,0,1,0,89.51,8.47a24,24,0,0,0-2.12-2.16Z"/><path class="cls-1" d="M214.11,4.47a22.82,22.82,0,1,0,22.82,22.82h0A22.82,22.82,0,0,0,214.11,4.47Zm0,34.23a11.41,11.41,0,1,1,11.41-11.41A11.41,11.41,0,0,1,214.11,38.7Z"/><path class="cls-1" d="M45.59,26A22.79,22.79,0,0,0,10.67,7.79,11.3,11.3,0,0,0,0,.19v28A22.82,22.82,0,0,0,45.59,26Z"/><ellipse class="cls-2" cx="21.77" cy="30" rx="6.97" ry="9.66"/><ellipse class="cls-2" cx="32.62" cy="29.48" rx="5.77" ry="8.14"/><ellipse cx="24.74" cy="29.96" rx="2.61" ry="3.79"/><ellipse cx="30.7" cy="29.98" rx="2.26" ry="3.17"/></g></g></svg>